# xmcd
#
# Track frame offsets:
#	150
#	14976
#	29658
#	47855
#	60146
#	73743
#	90789
#	108006
#	126090
#	148094
#
# Disc length: 2082 seconds
# Revision: 0
# Processed by: cddbd v1.5.2PL0 Copyright (c) Steve Scherf et al.
# Submitted via: dBpowerAMP V12.0
#
DISCID=8608200a
DTITLE=Dave Insley - Here With You Tonight
DYEAR=2006
DGENRE=Country
TTITLE0=Open Road
TTITLE1=You're The One I Prefer
TTITLE2=Borrowed Time
TTITLE3=South Of The Border
TTITLE4=God Loves The Working Man
TTITLE5=White Cross
TTITLE6=Cashed In My Old Life
TTITLE7=Other Trails To Ride
TTITLE8=Grace
TTITLE9=Train In The Distance
EXTD=
EXTT0=
EXTT1=
EXTT2=
EXTT3=
EXTT4=
EXTT5=
EXTT6=
EXTT7=
EXTT8=
EXTT9=
PLAYORDER=
